<?xml version="1.0" encoding="UTF-8" standalone="no"?>
<svg xmlns="http://www.w3.org/2000/svg" version="1.2" baseProfile="tiny" viewBox="0 0 600 600" width="600" height="600">
<g stroke-width="2.50" fill="none" stroke-linecap="butt">
<path stroke="#787a7d" d="
  M 228.67 321.31
  Q 229.19 321.31 228.82 320.94
  Q 205.74 298.12 203.83 266.99
  Q 203.22 257.13 205.22 247.11
  Q 212.49 210.61 245.31 192.06
  Q 260.15 183.68 278.01 182.41
  Q 287.85 181.71 297.91 183.55
  Q 329.53 189.34 348.47 214.91
  Q 354.54 223.10 358.32 232.26
  Q 366.95 253.14 363.25 275.00
  Q 358.65 302.21 339.18 320.83
  Q 338.49 321.50 339.45 321.50
  L 417.19 321.44
  A 0.50 0.50 0.0 0 0 417.69 320.94
  L 417.75 150.51
  A 0.51 0.51 0.0 0 0 417.24 150.00
  L 150.37 150.00
  A 0.37 0.37 0.0 0 0 150.00 150.37
  L 150.00 320.82
  A 0.68 0.68 0.0 0 0 150.68 321.50
  L 228.67 321.31"
/>
<path stroke="#f77a85" d="
  M 445.59 448.86
  Q 373.49 426.55 321.31 373.08
  Q 314.37 365.97 307.89 358.27
  Q 267.01 309.69 248.34 248.51
  Q 247.62 246.15 246.79 247.44
  Q 246.50 247.89 246.50 248.64
  Q 246.45 349.04 246.56 449.45
  A 0.51 0.49 -0.0 0 0 247.07 449.94
  L 445.44 449.94
  A 0.84 0.55 5.0 0 0 446.20 449.53
  Q 446.33 449.09 445.59 448.86"
/>
</g>
<path fill="#f0f3fa" d="
  M 0.00 0.00
  L 600.00 0.00
  L 600.00 600.00
  L 0.00 600.00
  L 0.00 0.00
  Z
  M 228.67 321.31
  Q 229.19 321.31 228.82 320.94
  Q 205.74 298.12 203.83 266.99
  Q 203.22 257.13 205.22 247.11
  Q 212.49 210.61 245.31 192.06
  Q 260.15 183.68 278.01 182.41
  Q 287.85 181.71 297.91 183.55
  Q 329.53 189.34 348.47 214.91
  Q 354.54 223.10 358.32 232.26
  Q 366.95 253.14 363.25 275.00
  Q 358.65 302.21 339.18 320.83
  Q 338.49 321.50 339.45 321.50
  L 417.19 321.44
  A 0.50 0.50 0.0 0 0 417.69 320.94
  L 417.75 150.51
  A 0.51 0.51 0.0 0 0 417.24 150.00
  L 150.37 150.00
  A 0.37 0.37 0.0 0 0 150.00 150.37
  L 150.00 320.82
  A 0.68 0.68 0.0 0 0 150.68 321.50
  L 228.67 321.31
  Z
  M 445.59 448.86
  Q 373.49 426.55 321.31 373.08
  Q 314.37 365.97 307.89 358.27
  Q 267.01 309.69 248.34 248.51
  Q 247.62 246.15 246.79 247.44
  Q 246.50 247.89 246.50 248.64
  Q 246.45 349.04 246.56 449.45
  A 0.51 0.49 -0.0 0 0 247.07 449.94
  L 445.44 449.94
  A 0.84 0.55 5.0 0 0 446.20 449.53
  Q 446.33 449.09 445.59 448.86
  Z"
/>
<path fill="#000000" d="
  M 228.67 321.31
  L 150.68 321.50
  A 0.68 0.68 0.0 0 1 150.00 320.82
  L 150.00 150.37
  A 0.37 0.37 0.0 0 1 150.37 150.00
  L 417.24 150.00
  A 0.51 0.51 0.0 0 1 417.75 150.51
  L 417.69 320.94
  A 0.50 0.50 0.0 0 1 417.19 321.44
  L 339.45 321.50
  Q 338.49 321.50 339.18 320.83
  Q 358.65 302.21 363.25 275.00
  Q 366.95 253.14 358.32 232.26
  Q 354.54 223.10 348.47 214.91
  Q 329.53 189.34 297.91 183.55
  Q 287.85 181.71 278.01 182.41
  Q 260.15 183.68 245.31 192.06
  Q 212.49 210.61 205.22 247.11
  Q 203.22 257.13 203.83 266.99
  Q 205.74 298.12 228.82 320.94
  Q 229.19 321.31 228.67 321.31
  Z"
/>
<path fill="#fe000f" d="
  M 445.59 448.86
  Q 446.33 449.09 446.20 449.53
  A 0.84 0.55 5.0 0 1 445.44 449.94
  L 247.07 449.94
  A 0.51 0.49 0.0 0 1 246.56 449.45
  Q 246.45 349.04 246.50 248.64
  Q 246.50 247.89 246.79 247.44
  Q 247.62 246.15 248.34 248.51
  Q 267.01 309.69 307.89 358.27
  Q 314.37 365.97 321.31 373.08
  Q 373.49 426.55 445.59 448.86
  Z"
/>
</svg>
